<svg xmlns="http://www.w3.org/2000/svg" data-name="Layer 1" viewBox="0 0 168 168"><circle cx="2" cy="146" r="2" fill="#2d4356"/><path fill="#2d4356" d="M11 144H8a2 2 0 0 0 0 4h3a2 2 0 0 0 0-4zM160 144h-3a2 2 0 0 0 0 4h3a2 2 0 0 0 0-4z"/><circle cx="166" cy="146" r="2" fill="#2d4356"/><path fill="#2d4356" d="M150.72131 144H139.09265a8.4191 8.4191 0 0 0 1.45233-3.96191 147.35021 147.35021 0 0 0-.10449-24.02252c-1.3457-20.97845-28.914-25.38568-28.914-25.38568-7.04181-1.25793-9.91254-7.30334-11.04913-11.2171a54.38752 54.38752 0 0 0 11.29517-21.53339 34.06415 34.06415 0 0 0 1.22754-8.96881 28.52255 28.52255 0 0 0-.46387-5.02679c3.514-5.89032 2.47913-12.45844 1.64545-15.61432a2.12733 2.12733 0 0 0-2.194-1.43176 3.08825 3.08825 0 0 0-.31671.0163 11.57773 11.57773 0 0 1-1.18549.05676c-6.29333 0-16.70068-4.18079-16.70068-4.18079A30.858 30.858 0 0 0 81.53925 20v3.99994h.00012a27.10016 27.10016 0 0 1 10.66418 2.40424q.04486.01932.09015.03754c1.13873.4574 11.3233 4.46906 18.19177 4.46906q.09714 0 .19348-.001c.992 5.32855.41437 13.37592-10.11249 17.59082a33.51679 33.51679 0 0 1-10.91052 1.8974c-5.93866 0-10.83429-1.80707-14.551-5.371a3.99995 3.99995 0 0 0-6.7381 2.39551L68.11029 49.494l-1.26636-.8916a4 4 0 0 0-4.82343.16461 13.39581 13.39581 0 0 0-2.52875 2.81409c-1.0072-7.38873-.86462-16.50842 3.8858-18.09845a4.07622 4.07622 0 0 0 2.017-1.51324 20.5166 20.5166 0 0 1 16.14294-7.96948L81.53925 20l-.002-.00006A24.66367 24.66367 0 0 0 62.108 29.68951c-6.34351 2.12323-7.41644 10.29327-7.04 17.44727-.03607.58783-.06787 1.17688-.06787 1.7738A50.22588 50.22588 0 0 0 66.68749 80.125c.20832.23773.42444.46552.64057.6933-1.38629 3.821-4.35 8.697-10.58972 9.81158 0 0-27.56934 4.40723-28.91406 25.38568a104.81979 104.81979 0 0 0-.26764 24.04065A8.44335 8.44335 0 0 0 29.06989 144H17.27869a2.017 2.017 0 1 0 0 4H150.72131a2.017 2.017 0 1 0 0-4zM100.8042 89.53284l1.46466 1.61816.35162.38849.43982.28485 1.28619.83282-9.87317 14.11761-3.87048-6.35535-.15814-.25977-.19568-.23285a1.4833 1.4833 0 0 1-.079-1.52014zM81.56818 97l.00006.00018a4.92755 4.92755 0 0 0-.84937-1.39276l-11.427-9.53528a23.22449 23.22449 0 0 0 1.22864-2.4444 22.31458 22.31458 0 0 0 13.08844 4.37219 19.76573 19.76573 0 0 0 12.67334-4.53656c.35071-.28833.69049-.59155 1.03088-.89392a23.99058 23.99058 0 0 0 1.57446 3.353l-11.60626 9.685a4.92775 4.92775 0 0 0-.84943 1.39276L86.432 97zm-20.472-35.37085A10.70884 10.70884 0 0 1 64.54108 51.873l5.38281 3.7901a1.36818 1.36818 0 0 0 .81769.35645c.437 0 .72766-.39075.72766-1.10254l.86725-7.00293c5.29486 5.07727 11.76843 6.48389 17.31946 6.48389a37.11 37.11 0 0 0 12.37781-2.17627 24.11987 24.11987 0 0 0 6.93347-4.10352c.0105.26422.03284.527.03284.79242a29.9471 29.9471 0 0 1-1.08508 7.91095c-2.67786 9.76465-7.84363 18.349-14.17285 23.55194a15.77926 15.77926 0 0 1-10.13318 3.62646 18.60912 18.60912 0 0 1-13.91248-6.51056A44.96094 44.96094 0 0 1 61.09619 61.62915zm3.84363 30.19519l.43982-.28485.35162-.38849 1.46466-1.61816 10.63422 8.87378a1.48312 1.48312 0 0 1-.079 1.5202l-.19568.23285-.15814.25977-3.87048 6.35535L63.65363 92.65717zM36.55579 144a5.23079 5.23079 0 0 1-5.02167-4.36768 101.87029 101.87029 0 0 1 .245-23.01758l.02594-.17084.011-.17242C32.93793 98.76917 57.132 94.61859 57.36975 94.57977l.03607-.0058.03595-.00641a17.8585 17.8585 0 0 0 2.27026-.567l11.24414 16.078a2.86934 2.86934 0 0 0 2.50836 1.92145 3.13046 3.13046 0 0 0 2.33923-1.274L80.81354 102.5a4.94409 4.94409 0 0 0 .8479-1.5h4.67725a4.94409 4.94409 0 0 0 .8479 1.5l.65143 1.06964L86.506 106H81.68823l-1.44781-2.5589-2.38245 3.912 1.47388 2.605-4.23267 20.43744a5.25985 5.25985 0 0 0 1.88623 5.06934l4.78076 3.6377a4.691 4.691 0 0 0 5.52295 0l4.78174-3.63867a5.15283 5.15283 0 0 0 1.79639-5.10791L88.8075 110h.06757l1.36377-2.48822 1.95752 3.21429a3.13046 3.13046 0 0 0 2.33923 1.274 2.86934 2.86934 0 0 0 2.50836-1.92145l11.2934-16.14838a17.77353 17.77353 0 0 0 2.48572.63733l.03589.00641.03607.0058c.24414.039 24.4256 4.10608 25.55365 21.69189l.00415.064.00616.06384a143.94142 143.94142 0 0 1 .10284 23.27167A5.05433 5.05433 0 0 1 131.70911 144zm53.435-12.65771a1.22054 1.22054 0 0 1-.34326.939l-4.78076 3.63867a.76223.76223 0 0 1-.67773-.00049l-4.78027-3.63721a1.37717 1.37717 0 0 1-.397-1.05518L83.40826 110h1.27759zM125 21a3 3 0 1 0-3-3A3.00344 3.00344 0 0 0 125 21zm0-4.5a1.5 1.5 0 1 1-1.5 1.5A1.50148 1.50148 0 0 1 125 16.5zM48 47a3 3 0 1 0-3-3A3.00344 3.00344 0 0 0 48 47zm0-4.5A1.5 1.5 0 1 1 46.5 44 1.50148 1.50148 0 0 1 48 42.5zM147 34a2 2 0 1 0-2-2A2.00229 2.00229 0 0 0 147 34zm0-3a1 1 0 1 1-1 1A1.001 1.001 0 0 1 147 31z"/><path fill="#2d4356" d="M121 54a2 2 0 1 0-2-2A2.00229 2.00229 0 0 0 121 54zm0-3a1 1 0 1 1-1 1A1.001 1.001 0 0 1 121 51zM34 25a2 2 0 1 0-2-2A2.00229 2.00229 0 0 0 34 25zm0-3a1 1 0 1 1-1 1A1.001 1.001 0 0 1 34 22z"/><path fill="#0bceb2" d="M118.15387 153h-8.30774a2.00641 2.00641 0 0 0 0 4h8.30774a2.00641 2.00641 0 0 0 0-4zM58.15387 153H49.84613a2.00641 2.00641 0 0 0 0 4h8.30774a2.00641 2.00641 0 0 0 0-4zM104 153H64a2 2 0 0 0 0 4H79.94v2H72a2 2 0 0 0 0 4H97a2 2 0 0 0 0-4H88.06v-2H104a2 2 0 0 0 0-4z"/><polygon fill="#0bceb2" points="6.583 43.011 8.07 41.056 7.131 40.524 6.177 42.714 6.145 42.714 5.175 40.539 4.22 41.087 5.691 42.996 5.691 43.027 3.391 42.73 3.391 43.794 5.707 43.497 5.707 43.528 4.22 45.436 5.112 46 6.13 43.794 6.16 43.794 7.099 45.984 8.085 45.421 6.583 43.543 6.583 43.512 8.945 43.794 8.945 42.73 6.583 43.042 6.583 43.011"/><polygon fill="#0bceb2" points="41.641 4.406 41.341 3.862 40.212 4.647 40.196 4.638 40.378 3.279 39.744 3.259 39.889 4.639 39.879 4.654 38.841 3.814 38.52 4.335 39.745 4.889 39.736 4.905 38.43 5.391 38.697 5.937 39.863 5.163 39.878 5.172 39.677 6.529 40.33 6.551 40.161 5.177 40.17 5.161 41.243 6.013 41.565 5.491 40.312 4.931 40.321 4.916 41.641 4.406"/><polygon fill="#0bceb2" points="154.683 67.946 156.142 66.028 155.221 65.506 154.285 67.654 154.253 67.654 153.302 65.521 152.365 66.059 153.808 67.931 153.808 67.962 151.552 67.67 151.552 68.713 153.823 68.422 153.823 68.453 152.365 70.325 153.24 70.878 154.238 68.713 154.268 68.713 155.189 70.862 156.156 70.31 154.683 68.468 154.683 68.437 157 68.713 157 67.67 154.683 67.977 154.683 67.946"/><polygon fill="#0bceb2" points="158.11 13.543 158.11 12.841 156.55 13.047 156.55 13.026 157.532 11.735 156.912 11.384 156.282 12.83 156.261 12.83 155.621 11.394 154.99 11.756 155.961 13.016 155.961 13.037 154.442 12.841 154.442 13.543 155.971 13.347 155.971 13.368 154.99 14.628 155.578 15 156.251 13.543 156.271 13.543 156.891 14.989 157.542 14.618 156.55 13.378 156.55 13.357 158.11 13.543"/><polygon fill="#0bceb2" points="91.702 14.023 90.444 15.638 91.198 16.115 92.06 14.248 92.085 14.248 92.88 16.101 93.714 15.625 92.443 14.036 92.443 14.009 94.442 14.248 94.442 13.348 92.443 13.612 92.443 13.586 93.701 11.931 92.907 11.481 92.099 13.334 92.073 13.334 91.252 11.494 90.444 11.958 91.689 13.573 91.689 13.599 89.742 13.348 89.742 14.248 91.702 13.996 91.702 14.023"/></svg>