<svg id="SvgjsSvg1025" width="288" height="288" xmlns="http://www.w3.org/2000/svg" version="1.1" xmlns:xlink="http://www.w3.org/1999/xlink" xmlns:svgjs="http://svgjs.com/svgjs"><defs id="SvgjsDefs1026"></defs><g id="SvgjsG1027"><svg xmlns="http://www.w3.org/2000/svg" enable-background="new 0 0 24 24" viewBox="0 0 24 24" width="288" height="288"><path fill="#303c42" d="M21,10c0-3.343-1.896-9-9-9c-0.133,0-0.26,0.053-0.354,0.146L11.29,1.501   C3.812,1.608,2.999,7.468,2.999,10c0,1.128,0.263,2.235,0.417,2.79c-0.355,0.541-0.417,1.193-0.417,1.71   c0,0.958,0.888,3.103,2.15,3.452c0.013,0.031,0.026,0.064,0.04,0.099C5.733,19.404,7.181,23,11.999,23s6.266-3.596,6.811-4.95   c0.014-0.035,0.027-0.067,0.04-0.099c1.262-0.349,2.15-2.494,2.15-3.452c0-0.517-0.062-1.169-0.417-1.71   C20.736,12.235,21,11.128,21,10z" class="color303c42 svgShape"></path><path fill="#d66436" d="M11.499,2.5c0.133,0,0.26-0.053,0.354-0.146l0.352-0.352C19.91,2.133,20,9.676,20,10   c0,0.555-0.072,1.109-0.161,1.581C18.964,7.978,15.66,6,13.499,6c-0.108,0-0.213,0.035-0.3,0.1c-0.019,0.014-1.894,1.4-4.2,1.4   c-2.727,0-4.374,2.246-4.853,4.006C4.064,11.052,3.999,10.526,3.999,10C3.999,7.199,4.974,2.5,11.499,2.5z" class="colorffd54f svgShape"></path><path fill="#ffffff" d="M12.209,3.21c0.133,0,0.26-0.053,0.354-0.146l0.352-0.352   c2.339,0.04,3.968,0.767,5.114,1.764c-1.146-1.348-2.956-2.425-5.824-2.473l-0.352,0.352C11.76,2.449,11.633,2.501,11.5,2.501   c-6.525,0-7.5,4.699-7.5,7.5c0,0.526,0.065,1.052,0.147,1.506c0.12-0.44,0.313-0.911,0.577-1.369C4.86,7.314,6.11,3.21,12.209,3.21   z" enable-background="new" opacity=".2" class="colorfff svgShape"></path><path fill="#fee8d7" d="M18.5,17c-0.192,0-0.367,0.11-0.451,0.283c-0.046,0.096-0.101,0.23-0.167,0.394   C17.361,18.971,16.142,22,11.999,22s-5.362-3.029-5.883-4.323c-0.066-0.164-0.121-0.298-0.167-0.394C5.866,17.11,5.691,17,5.499,17   c-0.628,0-1.5-1.736-1.5-2.5c0-0.643,0.124-1.006,0.302-1.234c0.014-0.012,0.033-0.016,0.045-0.03   c0.117-0.133,0.229-0.221,0.363-0.282c0.177-0.081,0.29-0.259,0.29-0.454c0-1.357,1.412-4,4-4c2.27,0,4.124-1.137,4.652-1.496   c1.675,0.099,4.881,1.792,5.352,5.558c0.021,0.171,0.129,0.319,0.286,0.392c0.133,0.061,0.248,0.151,0.363,0.282   c0.014,0.016,0.034,0.023,0.05,0.037C19.877,13.501,20,13.863,20,14.5C20,15.264,19.127,17,18.5,17z" class="colorfee8d7 svgShape"></path><path fill="#ffffff" d="M6.852,17.677c-0.058-0.164-0.106-0.298-0.146-0.394   C6.633,17.11,6.479,17,6.311,17c-0.549,0-1.312-1.736-1.312-2.5c0-0.643,0.108-1.006,0.264-1.234   c0.012-0.012,0.029-0.016,0.039-0.03c0.103-0.133,0.2-0.221,0.317-0.282c0.155-0.082,0.254-0.259,0.254-0.454   c0-1.357,1.235-4,3.5-4c1.002,0,1.91-0.29,2.625-0.623c-0.817,0.333-1.855,0.623-3,0.623c-2.588,0-4,2.643-4,4   c0,0.195-0.113,0.373-0.291,0.454c-0.134,0.062-0.246,0.149-0.363,0.282c-0.012,0.014-0.031,0.018-0.045,0.03   c-0.176,0.228-0.3,0.591-0.3,1.234c0,0.764,0.872,2.5,1.5,2.5c0.192,0,0.367,0.11,0.451,0.283c0.046,0.096,0.101,0.23,0.167,0.394   C6.637,18.971,7.856,22,11.999,22C8.374,22,7.307,18.971,6.852,17.677z" enable-background="new" opacity=".2" class="colorfff svgShape"></path><path d="M19.702,13.273c-0.016-0.014-0.036-0.021-0.05-0.037   c-0.115-0.131-0.23-0.221-0.363-0.282c-0.157-0.073-0.265-0.221-0.286-0.392c-0.471-3.765-3.677-5.458-5.352-5.558   c-0.012,0.008-0.033,0.021-0.046,0.03c1.499,0.198,4.125,1.887,4.523,5.528c0.019,0.171,0.113,0.319,0.25,0.392   c0.116,0.061,0.217,0.151,0.318,0.282c0.012,0.016,0.03,0.023,0.043,0.037C18.892,13.501,19,13.863,19,14.5   c0,0.764-0.763,2.5-1.313,2.5c-0.168,0-0.321,0.11-0.394,0.283c-0.04,0.096-0.088,0.23-0.146,0.394   C16.691,18.971,15.624,22,11.999,22c4.143,0,5.362-3.029,5.883-4.323c0.066-0.164,0.121-0.298,0.167-0.394   C18.132,17.11,18.307,17,18.5,17c0.628,0,1.5-1.736,1.5-2.5C20,13.863,19.877,13.501,19.702,13.273z" enable-background="new" opacity=".1" fill="#000000" class="color000 svgShape"></path><circle cx="8.499" cy="13" r="1" fill="#303c42" class="color303c42 svgShape"></circle><circle cx="15.499" cy="13" r="1" fill="#303c42" class="color303c42 svgShape"></circle><linearGradient id="a" x1="2.967" x2="20.67" y1="16.358" y2="8.103" gradientTransform="matrix(1 0 0 -1 0 24)" gradientUnits="userSpaceOnUse"><stop offset="0" stop-color="#fff" stop-opacity=".2"></stop><stop offset="1" stop-color="#fff" stop-opacity="0"></stop></linearGradient><path fill="url(#a)" d="M21,10c0-3.343-1.896-9-9-9c-0.133,0-0.26,0.053-0.354,0.146L11.29,1.501   C3.812,1.608,2.999,7.468,2.999,10c0,1.128,0.263,2.235,0.417,2.79c-0.355,0.541-0.417,1.193-0.417,1.71   c0,0.958,0.888,3.103,2.15,3.452c0.013,0.031,0.026,0.064,0.04,0.099C5.733,19.404,7.181,23,11.999,23s6.266-3.596,6.811-4.95   c0.014-0.035,0.027-0.067,0.04-0.099c1.262-0.349,2.15-2.494,2.15-3.452c0-0.517-0.062-1.169-0.417-1.71   C20.736,12.235,21,11.128,21,10z"></path></svg></g></svg>